<?xml version="1.0" encoding="utf-8"?>
<!-- Generator: Adobe Illustrator 19.0.0, SVG Export Plug-In . SVG Version: 6.00 Build 0)  -->
<svg version="1.1" id="Layer_1" xmlns="http://www.w3.org/2000/svg" xmlns:xlink="http://www.w3.org/1999/xlink" x="0px" y="0px"
	 viewBox="0 0 640 355" style="enable-background:new 0 0 640 355;" xml:space="preserve">
<style type="text/css">
	.st0{fill:#ED1E79;stroke:#000000;stroke-miterlimit:10;}
	.st1{fill:#29ABE2;stroke:#000000;stroke-width:0.25;stroke-miterlimit:10;}
</style>
<g id="XMLID_1_">
	<path id="XMLID_11_" class="st0" d="M51.2,103c0-26.8,0-44.6-0.7-52.4C50,43.7,47.8,39.3,42,38.1c-3.2-0.7-6.3-0.7-9.3-1
		c-3.2,0-4.4-1-4.4-2.4s0.7-2.4,5.4-2.4C44.2,32.2,69,33,73.2,33c11.7,0,25.4-0.7,36.6-0.7c33.2,0,49.3,7.8,59,16.8
		c5.4,5.1,13.2,15.9,13.2,32.4c0,37.6-34.4,57.8-68,57.8c-1.7,0-5.9-0.2-7.6-0.7c-1.5-0.5-2.7-1-2.7-2.4s1-2.4,5.4-2.4
		c20.2,0,30-15.9,30-37.8c0-16.8-3.2-30.2-11.9-39.8c-6.3-6.8-14.6-10-23.2-10c-3.2,0-5.1,0.2-6.6,0.5c-2,0.5-2.9,2-2.9,6.1v93.2
		c0,19,0,41.2,1.2,51.5c0.5,7.1,2.2,11.7,9.5,13.2c3.4,0.7,7.8,1,10.7,1.2c3.7,0,4.6,0.7,4.6,2.7c0,1.2-1.2,2.2-4.9,2.2
		c-16.8,0-42.7-0.7-44.9-0.7c-1.2,0-27.8,0.7-36.1,0.7c-3.4,0-4.9-0.7-4.9-2.4s2-2.4,4.6-2.4c2.4-0.2,4.9-0.5,7.3-1
		c4.9-1,7.1-4.4,8-13.7c1-10.2,1.5-27.6,1.5-51.2V103z"/>
	<path id="XMLID_46_" class="st0" d="M225.1,103c0-26.8,0-44.6-0.7-52.4c-0.5-6.8-2.7-11.2-8.5-12.4c-3.2-0.7-6.3-0.7-9.3-1
		c-3.2,0-4.4-1-4.4-2.4s0.7-2.4,5.4-2.4c10.5,0,35.4,0.7,39.5,0.7c11.7,0,25.4-0.7,36.6-0.7c33.2,0,49.3,7.8,59,16.8
		c5.4,5.1,13.2,15.9,13.2,32.4c0,37.6-34.4,57.8-68,57.8c-1.7,0-5.9-0.2-7.6-0.7c-1.5-0.5-2.7-1-2.7-2.4s1-2.4,5.4-2.4
		c20.2,0,30-15.9,30-37.8c0-16.8-3.2-30.2-11.9-39.8c-6.3-6.8-14.6-10-23.2-10c-3.2,0-5.1,0.2-6.6,0.5c-2,0.5-2.9,2-2.9,6.1v93.2
		c0,19,0,41.2,1.2,51.5c0.5,7.1,2.2,11.7,9.5,13.2c3.4,0.7,7.8,1,10.7,1.2c3.7,0,4.6,0.7,4.6,2.7c0,1.2-1.2,2.2-4.9,2.2
		c-16.8,0-42.7-0.7-44.9-0.7c-1.2,0-27.8,0.7-36.1,0.7c-3.4,0-4.9-0.7-4.9-2.4s2-2.4,4.6-2.4c2.4-0.2,4.9-0.5,7.3-1
		c4.9-1,7.1-4.4,8-13.7c1-10.2,1.5-27.6,1.5-51.2V103z"/>
	<path id="XMLID_48_" class="st0" d="M591.1,185.2c2,15.9,4.4,21.9,12.4,24.4c4.9,1.5,10.7,2,13.9,2.2c3.2,0,4.6,0.7,4.6,2.4
		c0,2-2,2.4-5.9,2.4c-20.2,0-40,0-67.8-1.5c-4.6-0.2-5.6-1.7-5.6-2.9c0-1,1-2,2.7-2.4c3.9-1.5,4.1-2.9,3.2-13.9l-8.8-87.3
		l-50.2,94.1c-6.6,12.4-8,13.9-10,13.9c-2.7,0-4.1-2.4-11-13.2c-8.5-13.7-23.4-41.5-32.7-57.1c-4.1-7.1-14.9-27.1-19.5-35.4
		l-7.1,68.8c-1,10.5-1,15.9-1,19.5c0,7.1,2.4,10,8.5,11.2c3.7,0.7,5.9,1,9,1.2c3.7,0,4.4,0.7,4.4,2.2c0,2-1,2.7-4.9,2.7
		c-10.7,0-24.1-0.7-31.5-0.7c-7.6,0-19,0.7-28,0.7c-2.4,0-5.4,0-5.4-2.4c0-1.5,1.5-2.4,4.9-2.4c2-0.2,4.6-0.2,7.3-0.7
		c7.1-1.5,9.5-7.1,11.9-23.2l22.2-150c1-7.3,2.7-9.5,5.1-9.5c2.7,0,4.4,2.4,9.5,10l69.7,116.8l66.8-118c3.9-6.3,5.9-8.8,8.3-8.8
		c2.4,0,3.9,3.4,4.6,9.5L591.1,185.2z"/>
</g>
<g id="XMLID_2_">
	<path id="XMLID_50_" class="st1" d="M111,313c0.4,3.2,1,8.3,4.9,9.5c2.6,0.8,4.7,0.8,5.6,0.8c0.4,0,1,0.1,1,0.5
		c0,0.5-0.3,0.7-1.3,0.7c-2,0-12.2-0.3-15.6-0.5c-2.1-0.2-2.5-0.4-2.5-0.9c0-0.4,0.2-0.4,0.6-0.6c0.6-0.3,0.5-1.6,0.4-3.2l-4.3-46.9
		l-22.3,47.3c-1.9,4-2.2,4.8-3,4.8c-0.6,0-1.1-0.9-2.8-4.1c-2.3-4.4-10.1-20-10.5-20.9c-0.8-1.6-11.1-23.8-12.1-26.2l-3.7,42.3
		c-0.1,1.4-0.2,2.7-0.2,4.2c0,2.2,1.1,3,2.4,3.2c1.5,0.4,2.7,0.4,3.2,0.4c0.5,0,0.9,0.2,0.9,0.5c0,0.6-0.4,0.8-1.3,0.8
		c-3.3,0-7.9-0.3-8.6-0.3c-0.8,0-5.1,0.3-7.6,0.3c-0.9,0-1.5-0.1-1.5-0.7c0-0.4,0.4-0.5,0.9-0.5c0.7,0,1.3,0,2.7-0.3
		c3-0.5,3.1-3.8,3.6-7.5l6.5-58.4c0.1-1,0.4-1.8,1-1.8s0.9,0.4,1.3,1.3l27.5,56.5l26.4-56.5c0.4-0.8,0.7-1.4,1.3-1.4
		s0.9,0.7,1.1,2.4L111,313z"/>
	<path id="XMLID_52_" class="st1" d="M140.4,302.7c-0.4,0-0.7,0.3-0.9,0.7l-4,11.2c-0.9,2.5-1.5,4.9-1.5,6.4c0,1.6,1,2.3,3,2.3
		c0.3,0,0.4,0,0.6,0c0.8,0,1.1,0.3,1.1,0.6c0,0.4-0.7,0.6-1.3,0.6c-2,0-6.1-0.3-7.1-0.3c-0.9,0-4.9,0.3-8.6,0.3
		c-1,0-1.4-0.2-1.4-0.6c0-0.4,0.4-0.6,1.1-0.6c0.4,0,1.3,0,1.8-0.1c3.9-0.4,5.4-3.3,6.9-7.1l18-47.4c1-2.6,1.3-3.1,1.9-3.1
		c0.4,0,0.8,0.4,1.8,2.9c1.3,3,13.5,34.3,18.2,45.6c3,7.1,5.6,8.3,6.8,8.7c1.2,0.4,2.4,0.4,3.1,0.4c0.6,0,1.1,0.2,1.1,0.6
		s-0.4,0.6-1.3,0.6c-0.9,0-7.6,0-13.7-0.2c-1.7-0.1-2.2-0.2-2.2-0.6c0-0.3,0.3-0.5,0.6-0.6c0.4-0.2,0.9-0.6,0.4-2l-7.1-18.1
		c-0.2-0.3-0.4-0.4-0.7-0.4H140.4z M155.6,299.5c0.4,0,0.4-0.3,0.3-0.5l-7.1-19.9c-0.4-1.3-0.5-1.3-1,0l-6.7,19.9
		c-0.2,0.4,0,0.5,0.2,0.5H155.6z"/>
	<path id="XMLID_55_" class="st1" d="M203.1,302.4c0,6.9,0.1,13.3,0.4,16.6c0.3,2.2,0.4,3.4,2.7,4c1.1,0.3,2.8,0.4,3.5,0.4
		s1.1,0.3,1.1,0.5c0,0.4-0.3,0.7-1.2,0.7c-4.6,0-9.9-0.3-10.2-0.3s-5.7,0.3-8,0.3c-1,0-1.3-0.2-1.3-0.6c0-0.3,0.3-0.6,1-0.6
		s1.3,0,2-0.1c1.7-0.3,2-1.3,2.3-4.4c0.4-3.2,0.4-9.7,0.4-16.4v-32.1c-3,0-7.7,0-11.3,0.1c-5.8,0.1-7,1-8.3,2.9
		c-0.8,1.3-1.2,2.3-1.3,2.8c-0.3,0.6-0.4,0.7-0.8,0.7c-0.4,0-0.4-0.4-0.4-0.8c-0.1-0.5,1.3-6.5,1.8-8.9c0.3-1.1,0.5-1.4,0.8-1.4
		c0.6,0,2.3,0.8,4,1c3.1,0.4,5.7,0.4,5.8,0.4h29.5c2.5,0,5.2-0.2,6.5-0.4c1.2-0.3,1.4-0.4,1.7-0.4c0.4,0,0.5,0.4,0.5,0.8
		c0,2.5-0.2,8.5-0.2,9.2c0,0.8-0.4,1.1-0.6,1.1c-0.4,0-0.6-0.4-0.6-1.1c0-0.3,0-0.4-0.1-1.3c-0.4-3.6-1.5-4.5-10.6-4.6
		c-3.4,0-6.2-0.1-8.8-0.1V302.4z"/>
	<path id="XMLID_57_" class="st1" d="M240.2,288.9c0-11.9,0-14-0.2-16.5c-0.2-2.4-0.8-3.8-3.6-4.3c-0.5-0.1-1.4-0.2-2.2-0.2
		c-0.6,0-1-0.2-1-0.5c0-0.4,0.3-0.6,1.1-0.6c3.9,0,9.3,0.3,9.5,0.3c0.8,0,6.9-0.3,9.4-0.3c5,0,10.5,0.4,14.7,3.4
		c1.7,1.3,5.4,4.9,5.4,11c0,4.9-2.4,11.2-9.5,17c6.6,8.1,12,14.7,16.5,19.5c4.3,4.4,7,5.1,9.5,5.5c0.6,0.1,2.5,0.2,2.8,0.2
		c0.7,0,1,0.3,1,0.6c0,0.4-0.4,0.6-1.6,0.6h-6.3c-4.2,0-6.2-0.3-8.2-1.1c-3.8-1.6-6.5-5.7-11.1-11.7c-3.5-4.3-7.1-9.2-8.6-11.1
		c-0.4-0.4-0.5-0.5-1.1-0.5l-9.3-0.1c-0.4,0-0.4,0.1-0.4,0.5v1.3c0,7.2,0,13.8,0.4,17c0.3,2.2,0.5,4,3.5,4.3
		c0.9,0.1,1.9,0.2,2.6,0.2c0.8,0,1.2,0.3,1.2,0.5c0,0.4-0.4,0.7-1.3,0.7c-4.7,0-9.7-0.3-10.1-0.3c-1.4,0-5.4,0.3-7.8,0.3
		c-0.9,0-1.3-0.2-1.3-0.7c0-0.3,0.5-0.5,1.1-0.5c0.6,0,1.3,0,2-0.2c1.5-0.3,2.1-1.3,2.3-3.4c0.4-3.2,0.4-10.6,0.4-17.3V288.9z
		 M247.1,295.3c0,0.4,0.1,0.9,0.4,1.1c1.2,0.6,4.8,1.2,8,1.2c1.9,0,4.1-0.1,6-1.3c2.7-1.7,4.5-5.7,4.5-11.4
		c0-9.8-5.2-15.2-13.2-15.2c-2.2,0-4.1,0.2-5.2,0.5c-0.3,0.1-0.5,0.4-0.5,0.8V295.3z"/>
	<path id="XMLID_60_" class="st1" d="M298.5,288.9c0-11.9,0-14-0.2-16.5c-0.2-2.4-0.7-3.8-2.6-4.1c-0.9-0.2-1.5-0.2-2.1-0.3
		c-0.6-0.1-1-0.3-1-0.6c0-0.4,0.4-0.6,1.3-0.6c2.8,0,7.9,0.3,8.2,0.3c0.4,0,5.6-0.3,8.1-0.3c0.9,0,1.3,0.2,1.3,0.6
		c0,0.4-0.3,0.5-1,0.6c-0.5,0.1-1,0.1-1.6,0.2c-2.6,0.4-2.9,1.7-3.1,4.3c-0.2,2.4-0.1,4.5-0.1,16.4v13.5c0,6.9-0.1,13.2,0.4,16.4
		c0.4,2.6,0.7,3.6,3.1,4.1c1.2,0.3,3.1,0.4,3.4,0.4c0.8,0.1,1,0.3,1,0.6s-0.4,0.6-1.3,0.6c-4.6,0-9.8-0.3-10.2-0.3
		c-0.3,0-5.6,0.3-8.1,0.3c-0.8,0-1.4-0.2-1.4-0.6c0-0.4,0.4-0.6,1.2-0.6c0.4,0,1.4-0.1,2.2-0.3c1.5-0.4,1.8-2.2,2.1-4.3
		c0.4-3.2,0.4-9.6,0.4-16.4V288.9z"/>
	<path id="XMLID_62_" class="st1" d="M393,314.7c0.3,2.2,0.8,7.2,4.3,8c1.5,0.4,3.3,0.5,4.6,0.6c0.4,0,1.2,0.1,1.2,0.5
		s-0.4,0.7-1.3,0.7c-1.6,0-11.3-0.4-14.2-0.5c-2-0.2-2.7-0.4-2.7-0.8c0-0.3,0.4-0.6,0.8-0.8c0.5-0.2,0.7-1.3,0.5-2.5l-4-38.5
		l-19.1,38.7c-1.7,3.5-2,4.3-2.8,4.3c-0.5,0-1-0.8-2.7-3.9c-1.4-2.6-8.6-17-9.2-17.8c-0.5-1.1-9.3-18.5-10.1-20.4l-3.3,34.6
		c-0.1,1.3-0.1,2.1-0.1,3.4c0,1,0.4,2.3,2.2,2.7c1,0.2,1.6,0.2,2.5,0.3c0.7,0.1,0.9,0.4,0.9,0.5c0,0.6-0.5,0.7-1.5,0.7
		c-2.9,0-6.7-0.3-7.5-0.3c-0.9,0-4.7,0.3-6.9,0.3c-0.8,0-1.3-0.1-1.3-0.7c0-0.2,0.4-0.5,1.2-0.5c0.6,0,0.7,0,1.7-0.1
		c2.2-0.2,3-2.3,3.4-5.9l6-49.3c0.2-1.5,0.5-2.2,1-2.2s0.7,0.3,1.3,1.4l24.1,46.7l22.9-46.6c0.4-1,0.8-1.5,1.3-1.5s0.8,0.8,0.9,2.2
		L393,314.7z"/>
	<path id="XMLID_64_" class="st1" d="M408.6,295.6c0-12,9.3-29.8,31.5-29.8c17.8,0,31.4,10.6,31.4,28.7c0,17.2-12.7,31.2-31.8,31.2
		C417.6,325.6,408.6,309.3,408.6,295.6z M463,296.7c0-18.1-11.1-28.1-23.5-28.1c-12.5,0-22.6,7.7-22.6,24.7
		c0,17.6,9.8,29.3,24.9,29.3C447.9,322.6,463,319.5,463,296.7z"/>
	<path id="XMLID_67_" class="st1" d="M487.9,269.4c0-2.8,0.3-3.7,1-3.7c0.6,0,2.2,1.8,2.8,2.4c0.8,0.9,13.3,13.7,25.9,26.5
		c7,6.8,16,16.1,18.3,18.2l-1-37.4c-0.1-4.9-0.6-6.5-3.1-7.1c-1.5-0.3-2.9-0.4-3.5-0.4c-0.9,0-1.1-0.4-1.1-0.7
		c0-0.4,0.7-0.5,1.6-0.5c3.9,0,7.6,0.3,8.5,0.3c0.9,0,3.7-0.3,7.2-0.3c1,0,1.3,0.1,1.3,0.5c0,0.4-0.3,0.6-0.8,0.7
		c-0.5,0.1-1.3,0.1-2.2,0.3c-2.1,0.4-2.7,1.3-2.7,6.7l-0.2,45.1c0,4.5-0.2,4.9-0.8,4.9c-0.6,0-1.5-0.6-5.9-4.8
		c-0.4-0.2-12.9-12.6-20.7-20.2c-9.3-9.7-18.3-19.1-20.6-21.4l1.2,35.1c0.2,6.2,0.7,8.5,3,9.1c1.4,0.4,3,0.4,3.7,0.4
		c0.7,0,1.1,0.3,1.1,0.6c0,0.4-0.5,0.6-1.4,0.6c-4.9,0-8.1-0.3-8.7-0.3c-0.6,0-4,0.3-7.8,0.3c-0.8,0-1.3-0.1-1.3-0.6
		c0-0.4,0.4-0.6,1.3-0.6c0.6,0,1.6,0,2.8-0.4c2-0.6,2.4-3.1,2.4-9.6C487.9,270.5,488,284.4,487.9,269.4z"/>
	<path id="XMLID_69_" class="st1" d="M574.8,305c0-4.3-0.6-5.9-2-8.3c-0.5-1-11-18-13.8-21.8c-2.4-3.4-3.3-4.5-4.6-5.5
		c-1.3-0.9-2.4-1.3-4.2-1.3c-0.5,0-1-0.3-1-0.7c0-0.3,0.4-0.5,1.1-0.5c1.4,0,8.3,0.3,8.4,0.3c0.5,0,3.5-0.3,6.8-0.3
		c0.9,0,1.2,0.3,1.2,0.5c0,0.4-0.3,0.5-1,0.7c-1.3,0.3-1.4,0.7-1.4,1.4c0,0.9,0.5,1.8,1.2,3c1.2,2.2,13,21.3,14.4,23.6
		c1.4-3.1,11.5-19.6,12.8-21.8c1.7-3,2.1-3.8,2.1-4.8c0-1.2-1.1-1.2-2.1-1.3c-0.7-0.1-1-0.4-1-0.7c0-0.3,0.2-0.5,1.1-0.5
		c2.2,0,4,0.3,5.5,0.3c1.2,0,6.4-0.3,7.9-0.3c0.8,0,1.1,0.3,1.1,0.5c0,0.4-0.4,0.7-1.1,0.7c-1.9,0.1-3.2,0.3-4.5,1.2
		c-1.3,0.9-1.9,1.7-3.3,3.7c-5.2,7.2-13.9,21.8-15.3,25c-1.1,2.8-0.9,4.8-0.9,7.1v6.6c0,0.6,0,4,0.2,7.2c0.2,2.2,0.4,3.7,3.1,4.2
		c1.2,0.3,2.7,0.4,3.3,0.4c0.7,0,1,0.3,1,0.5c0,0.4-0.3,0.7-1.1,0.7c-4.5,0-10.1-0.3-10.3-0.3c-0.2,0-5.6,0.3-8.1,0.3
		c-0.9,0-1.3-0.3-1.3-0.7c0-0.3,0.3-0.5,0.9-0.5c0.7,0,1.5-0.1,2.2-0.3c1.5-0.3,2.2-2.2,2.3-4.3c0.3-3.2,0.3-6.5,0.3-7.2V305z"/>
</g>
<g id="XMLID_3_">
	<rect id="XMLID_71_" x="35" y="238" width="565" height="2"/>
</g>
</svg>
